# xmcd CD database file
#
# Track frame offsets:
#	150
#	28517
#	49797
#	63570
#	87052
#	119202
#	127780
#	154665
#	175622
#	212932
#	227202
#	237985
#
# Disc length: 3343 seconds
#
# Revision: 0
# Processed by: cddbd v1.4PL0 Copyright (c) Steve Scherf et al.
# Submitted via: CDex 1.50beta10
#
DISCID=9f0d0d0c
DTITLE=Donald Harrison - Indian Blues
DYEAR=1992
DGENRE=Jazz
TTITLE0=Hu-Ta-Nay
TTITLE1=Indian Blues
TTITLE2=Shallow Water
TTITLE3=Ja-Ki-Mo-Fi-Na-Hay
TTITLE4=Indian Red
TTITLE5=Two-Way-Pocky-Way
TTITLE6=Cherokee
TTITLE7=Hiko Hiko
TTITLE8=Uptown Ruler
TTITLE9=Big Chief
TTITLE10=Walkin' Home
TTITLE11=Shave 'Em Dry
EXTD=YEAR: 1992
EXTT0=
EXTT1=
EXTT2=
EXTT3=
EXTT4=
EXTT5=
EXTT6=
EXTT7=
EXTT8=
EXTT9=
EXTT10=
EXTT11=
PLAYORDER=
